# xmcd
#
# Track frame offsets:
#	150
#	84561
#	101037
#	126664
#	145708
#	187485
#
# Disc length: 2886 seconds
#
# Revision: 1
# Processed by: cddbd v1.5.2PL0 Copyright (c) Steve Scherf et al.
# Submitted via: audiograbber 1.83.01
#
DISCID=5b0b4406
DTITLE=Grateful Dead - 73-05-20A Campus Stadium, Santa Barbara CA
DYEAR=1900
DGENRE=
TTITLE0=Playing In The Band
TTITLE1=Promised Land
TTITLE2=Brown Eyed Women
TTITLE3=Mexicali Blues
TTITLE4=Row Jimmy
TTITLE5=Jack Straw
EXTD=
EXTT0=
EXTT1=
EXTT2=
EXTT3=
EXTT4=
EXTT5=
PLAYORDER=
